HIERARCHY
ROOT Hips
{
  OFFSET 5.84602e-005 68.8428 3.50346
  CHANNELS 6 Xposition Yposition Zposition Zrotation Xrotation Yrotation
  JOINT Spine
  {
    OFFSET 0 8.597 -4.6522
    CHANNELS 3 Zrotation Xrotation Yrotation
    JOINT Spine1
    {
      OFFSET 0 7.8454 0.4098
      CHANNELS 3 Zrotation Xrotation Yrotation
      JOINT Spine2
      {
        OFFSET 0 9.7078 -2.1609
        CHANNELS 3 Zrotation Xrotation Yrotation
        JOINT Neck
        {
          OFFSET 0 21.8761 -0.4549
          CHANNELS 3 Zrotation Xrotation Yrotation
          JOINT Head
          {
            OFFSET 0 12.3537 3.3602
            CHANNELS 3 Zrotation Xrotation Yrotation
            End Site
            {
              OFFSET 0.0001 18.9506 0.5657
            }
          }
        }
        JOINT LeftShoulder
        {
          OFFSET 2.2086 21.1115 7.2329
          CHANNELS 3 Zrotation Xrotation Yrotation
          JOINT LeftArm
          {
            OFFSET 13.1193 3.0282 -4.8998
            CHANNELS 3 Zrotation Xrotation Yrotation
            JOINT LeftForeArm
            {
              OFFSET 27.4081 -0.0973053 -0.2375
              CHANNELS 3 Zrotation Xrotation Yrotation
              JOINT LeftHand
              {
                OFFSET 22.8641 0.0662994 -0.1369
                CHANNELS 3 Zrotation Xrotation Yrotation
                JOINT LeftHandIndex1
                {
                  OFFSET 8.8614 0.775009 2.4612
                  CHANNELS 3 Zrotation Xrotation Yrotation
                  JOINT LeftHandIndex2
                  {
                    OFFSET 3.3146 -0.808304 0.5841
                    CHANNELS 3 Zrotation Xrotation Yrotation
                    JOINT LeftHandIndex3
                    {
                      OFFSET 2.2628 -0.552002 0.3989
                      CHANNELS 3 Zrotation Xrotation Yrotation
                      End Site
                      {
                        OFFSET 1.6102 -0.4807 0.2612
                      }
                    }
                  }
                }
                JOINT LeftHandMiddle1
                {
                  OFFSET 8.9937 0.895004 0.2143
                  CHANNELS 3 Zrotation Xrotation Yrotation
                  JOINT LeftHandMiddle2
                  {
                    OFFSET 4.0984 0.0113983 -0.0242
                    CHANNELS 3 Zrotation Xrotation Yrotation
                    JOINT LeftHandMiddle3
                    {
                      OFFSET 2.2716 0.00689697 -0.0138001
                      CHANNELS 3 Zrotation Xrotation Yrotation
                      End Site
                      {
                        OFFSET 2.0404 -0.1441 0.0027
                      }
                    }
                  }
                }
                JOINT LeftHandRing1
                {
                  OFFSET 8.5234 0.597198 -2.0164
                  CHANNELS 3 Zrotation Xrotation Yrotation
                  JOINT LeftHandRing2
                  {
                    OFFSET 3.7188 -0.188293 -0.2328
                    CHANNELS 3 Zrotation Xrotation Yrotation
                    JOINT LeftHandRing3
                    {
                      OFFSET 2.1191 -0.106598 -0.1332
                      CHANNELS 3 Zrotation Xrotation Yrotation
                      End Site
                      {
                        OFFSET 1.8737 -0.2304 -0.0886
                      }
                    }
                  }
                }
                JOINT LeftHandPinky1
                {
                  OFFSET 7.9094 -0.601089 -3.4825
                  CHANNELS 3 Zrotation Xrotation Yrotation
                  JOINT LeftHandPinky2
                  {
                    OFFSET 2.2874 -0.477005 -0.6314
                    CHANNELS 3 Zrotation Xrotation Yrotation
                    JOINT LeftHandPinky3
                    {
                      OFFSET 1.6774 -0.349396 -0.4633
                      CHANNELS 3 Zrotation Xrotation Yrotation
                      End Site
                      {
                        OFFSET 1.4888 -0.4091 -0.3416
                      }
                    }
                  }
                }
                JOINT LeftHandThumb1
                {
                  OFFSET 1.833 -1.3875 1.3896
                  CHANNELS 3 Zrotation Xrotation Yrotation
                  JOINT LeftHandThumb2
                  {
                    OFFSET 3.4129 -1.121 2.5732
                    CHANNELS 3 Zrotation Xrotation Yrotation
                    JOINT LeftHandThumb3
                    {
                      OFFSET 2.2474 -0.804199 1.6192
                      CHANNELS 3 Zrotation Xrotation Yrotation
                      End Site
                      {
                        OFFSET 1.6527 -0.5689 1.1317
                      }
                    }
                  }
                }
              }
            }
          }
        }
        JOINT RightShoulder
        {
          OFFSET -2.2086 21.1115 7.2329
          CHANNELS 3 Zrotation Xrotation Yrotation
          JOINT RightArm
          {
            OFFSET -13.1216 3.0287 -4.9007
            CHANNELS 3 Zrotation Xrotation Yrotation
            JOINT RightForeArm
            {
              OFFSET -27.4081 -0.0973053 -0.2375
              CHANNELS 3 Zrotation Xrotation Yrotation
              JOINT RightHand
              {
                OFFSET -22.8641 0.0664063 -0.1369
                CHANNELS 3 Zrotation Xrotation Yrotation
                JOINT RightHandIndex1
                {
                  OFFSET -8.8614 0.774994 2.4612
                  CHANNELS 3 Zrotation Xrotation Yrotation
                  JOINT RightHandIndex2
                  {
                    OFFSET -3.3146 -0.808304 0.5841
                    CHANNELS 3 Zrotation Xrotation Yrotation
                    JOINT RightHandIndex3
                    {
                      OFFSET -2.2628 -0.552002 0.3989
                      CHANNELS 3 Zrotation Xrotation Yrotation
                      End Site
                      {
                        OFFSET -1.6102 -0.4807 0.2612
                      }
                    }
                  }
                }
                JOINT RightHandMiddle1
                {
                  OFFSET -8.9937 0.894989 0.2143
                  CHANNELS 3 Zrotation Xrotation Yrotation
                  JOINT RightHandMiddle2
                  {
                    OFFSET -4.0984 0.0113983 -0.0242
                    CHANNELS 3 Zrotation Xrotation Yrotation
                    JOINT RightHandMiddle3
                    {
                      OFFSET -2.2716 0.00691223 -0.0138001
                      CHANNELS 3 Zrotation Xrotation Yrotation
                      End Site
                      {
                        OFFSET -2.0404 -0.1441 0.0027
                      }
                    }
                  }
                }
                JOINT RightHandRing1
                {
                  OFFSET -8.5234 0.597198 -2.0164
                  CHANNELS 3 Zrotation Xrotation Yrotation
                  JOINT RightHandRing2
                  {
                    OFFSET -3.7188 -0.188309 -0.2328
                    CHANNELS 3 Zrotation Xrotation Yrotation
                    JOINT RightHandRing3
                    {
                      OFFSET -2.1191 -0.106598 -0.1332
                      CHANNELS 3 Zrotation Xrotation Yrotation
                      End Site
                      {
                        OFFSET -1.8737 -0.2304 -0.0886
                      }
                    }
                  }
                }
                JOINT RightHandPinky1
                {
                  OFFSET -7.9094 -0.601105 -3.4825
                  CHANNELS 3 Zrotation Xrotation Yrotation
                  JOINT RightHandPinky2
                  {
                    OFFSET -2.2874 -0.477005 -0.6314
                    CHANNELS 3 Zrotation Xrotation Yrotation
                    JOINT RightHandPinky3
                    {
                      OFFSET -1.6774 -0.349396 -0.4633
                      CHANNELS 3 Zrotation Xrotation Yrotation
                      End Site
                      {
                        OFFSET -1.4888 -0.4091 -0.3416
                      }
                    }
                  }
                }
                JOINT RightHandThumb1
                {
                  OFFSET -1.833 -1.38751 1.3896
                  CHANNELS 3 Zrotation Xrotation Yrotation
                  JOINT RightHandThumb2
                  {
                    OFFSET -3.41299 -1.12099 2.5732
                    CHANNELS 3 Zrotation Xrotation Yrotation
                    JOINT RightHandThumb3
                    {
                      OFFSET -2.24741 -0.804108 1.6192
                      CHANNELS 3 Zrotation Xrotation Yrotation
                      End Site
                      {
                        OFFSET -1.6527 -0.5689 1.1317
                      }
                    }
                  }
                }
              }
            }
          }
        }
      }
    }
  }
  JOINT RightUpLeg
  {
    OFFSET -9.1966 3.8861 -0.7581
    CHANNELS 3 Zrotation Xrotation Yrotation
    JOINT RightLeg
    {
      OFFSET -0.7359 -41.0265 0
      CHANNELS 3 Zrotation Xrotation Yrotation
      JOINT RightFoot
      {
        OFFSET 0 -40.2855 0
        CHANNELS 3 Zrotation Xrotation Yrotation
        JOINT RightToeBase
        {
          OFFSET 0 -5.6122 11.7359
          CHANNELS 3 Zrotation Xrotation Yrotation
          End Site
          {
            OFFSET 0 0 7.8731
          }
        }
      }
    }
  }
  JOINT LeftUpLeg
  {
    OFFSET 9.1965 3.8864 -0.7581
    CHANNELS 3 Zrotation Xrotation Yrotation
    JOINT LeftLeg
    {
      OFFSET 0.7359 -41.0268 0
      CHANNELS 3 Zrotation Xrotation Yrotation
      JOINT LeftFoot
      {
        OFFSET 0 -40.2855 0
        CHANNELS 3 Zrotation Xrotation Yrotation
        JOINT LeftToeBase
        {
          OFFSET 0 -5.6122 11.7359
          CHANNELS 3 Zrotation Xrotation Yrotation
          End Site
          {
            OFFSET 0 0 7.8731
          }
        }
      }
    }
  }
}
MOTION
Frames:	4
Frame Time:	0.0333333
15.9355 -1.06477 17.3386 -180 -64.9956 -180 0 20.7994 -0 0 41.5988 -0 0 41.5988 -0 0 30.9996 -0 -0 -66.0238 -0 0 3.39935e-006 -0 -75.9999 2.22117e-006 4.99678 -1.23094e-005 -1.7276e-006 -81.0033 24.9975 4.77358e-006 -2.59537e-006 3.18055e-015 3.18055e-015 -7.95139e-016 -2.75869e-033 -1.98785e-016 -7.95139e-016 -0 -2.78299e-015 -0 3.18055e-015 3.18055e-015 -7.95139e-016 -0.0145636 -7.95549e-005 3.06719e-006 -3.18055e-015 2.5842e-015 3.97569e-016 3.18055e-015 3.18055e-015 -7.95139e-016 -0.0187375 -0.00116501 6.36073e-005 3.18055e-015 -4.77083e-015 3.97569e-016 3.18055e-015 3.18055e-015 -7.95139e-016 -0.0123126 -0.00325938 0.0006789 -3.18055e-015 1.59028e-015 1.19271e-015 3.18055e-015 3.18055e-015 -7.95139e-016 -2.75869e-033 -1.98785e-016 -7.95139e-016 -0 -2.78299e-015 -0 6.31977 2.82557 17.6571 47.3293 16.0795 60.0441 4.8658 1.51432 5.9787 30.3797 -5.49084 -14.6847 -6.36111e-015 7.95139e-015 -1.59028e-015 -3.18055e-015 4.77083e-015 -0 -6.36111e-015 3.18055e-015 7.95139e-016 -6.36111e-015 7.95139e-015 -1.59028e-015 0.0150025 -9.18522e-005 -2.68281e-006 3.18055e-015 -6.36111e-015 -5.56597e-015 -6.36111e-015 7.95139e-015 -1.59028e-015 0.0189981 -0.0011924 -6.00258e-005 -3.18055e-015 -6.36111e-015 -7.95139e-016 -6.36111e-015 7.95139e-015 -1.59028e-015 0.012331 -0.00325894 -0.000669946 1.27222e-014 3.18055e-015 2.38542e-015 -6.36111e-015 7.95139e-015 -1.59028e-015 -3.18055e-015 4.77083e-015 -0 -6.36111e-015 3.18055e-015 7.95139e-016 -55.1336 -33.0384 -21.2215 179.972 48.4652 174.547 -2.5097 15.8136 -3.30112 -2.97825e-007 7.63586e-007 -2.35018e-007 45.0787 -33.2899 11.9751 -179.981 45.1658 -174.234 2.60949 -1.48024 3.9096 5.45385e-007 3.3388e-007 -2.01025e-006 
15.9387 -1.06743 17.8811 -180 -64.9956 -180 0 20.7994 -0 0 41.5988 -0 0 41.5988 -0 0 30.9996 -0 -0 -65.3064 -0 0 3.39935e-006 -0 -75.9999 1.29437e-006 4.99678 -1.18324e-005 -2.90794e-006 -81.0033 24.9975 3.22971e-006 -6.53891e-006 3.18055e-015 1.55052e-014 3.97569e-016 9.54166e-015 1.05356e-014 1.98785e-015 -3.18055e-015 1.45113e-014 7.95139e-016 3.18055e-015 1.55052e-014 3.97569e-016 -0.0145455 -8.73494e-005 2.08384e-007 -3.18055e-015 -3.77691e-015 7.95139e-016 3.18055e-015 1.55052e-014 3.97569e-016 -0.0188198 -0.00117986 5.6916e-005 3.03456e-032 4.37326e-015 -3.97569e-016 3.18055e-015 1.55052e-014 3.97569e-016 -0.0123169 -0.00326452 0.000677862 4.68978e-032 -3.37934e-015 7.95139e-016 3.18055e-015 1.55052e-014 3.97569e-016 9.54166e-015 1.05356e-014 1.98785e-015 -3.18055e-015 1.45113e-014 7.95139e-016 6.70792 3.00447 17.6896 47.4526 16.2832 59.6015 4.86579 1.51432 5.9787 32.542 -4.1183 -15.6572 -1.00857e-006 -9.10154e-007 9.92052e-007 -1.00857e-006 -9.10154e-007 9.92052e-007 -1.00857e-006 -9.10154e-007 9.92052e-007 -1.00857e-006 -9.10154e-007 9.92052e-007 0.0150133 -8.46605e-005 1.04583e-005 -1.00853e-006 -9.10024e-007 9.92172e-007 -1.00857e-006 -9.10154e-007 9.92052e-007 0.0189577 -0.00118284 -5.82701e-005 -1.00851e-006 -9.09993e-007 9.92212e-007 -1.00857e-006 -9.10154e-007 9.92052e-007 0.0122365 -0.00324191 -0.00066857 -1.00851e-006 -9.10062e-007 9.92175e-007 -1.00857e-006 -9.10154e-007 9.92052e-007 -1.00857e-006 -9.10154e-007 9.92052e-007 -1.00857e-006 -9.10154e-007 9.92052e-007 -56.5925 -33.2075 -23.1824 179.971 47.3826 174.452 -2.45496 15.7751 -3.373 1.42913e-006 1.08037e-006 4.60921e-006 45.9923 -33.3481 13.2376 -179.981 43.7321 -174.032 2.58442 -1.52358 4.0449 2.10786e-006 9.31025e-007 -5.18368e-006 
15.9422 -1.07065 18.4235 -180 -64.9956 -180 0 20.7994 -0 0 41.5988 -0 0 41.5988 -0 0 30.9996 -0 -0 -64.5879 -0 0 3.39935e-006 -0 -75.9999 1.29437e-006 4.99678 -1.27141e-005 -3.68791e-006 -81.0033 24.9975 2.95461e-006 -3.95525e-006 -6.36111e-015 1.98785e-015 -7.95139e-016 -6.36111e-015 3.97569e-016 -0 -6.36111e-015 4.37326e-015 -1.19271e-015 -6.36111e-015 1.98785e-015 -7.95139e-016 -0.0145658 -8.09973e-005 4.91507e-006 -3.18055e-015 2.98177e-015 -0 -6.36111e-015 1.98785e-015 -7.95139e-016 -0.0187324 -0.00116809 5.97093e-005 -6.36111e-015 -1.59028e-015 -1.19271e-015 -6.36111e-015 1.98785e-015 -7.95139e-016 -0.0123163 -0.00325733 0.000674376 4.41391e-032 -3.18055e-015 7.95139e-016 -6.36111e-015 1.98785e-015 -7.95139e-016 -6.36111e-015 3.97569e-016 -0 -6.36111e-015 4.37326e-015 -1.19271e-015 7.09601 3.18357 17.7209 47.5777 16.486 59.158 4.86578 1.51433 5.9787 34.7202 -2.7858 -16.6776 -1.98626e-031 -4.77083e-015 -2.38542e-015 -0 0 2.38542e-015 -4.41391e-032 -3.18055e-015 -7.95139e-016 -1.98626e-031 -4.77083e-015 -2.38542e-015 0.0149571 -9.10193e-005 -2.88896e-006 -2.79883e-007 -3.94341e-007 1.08396e-006 -1.98626e-031 -4.77083e-015 -2.38542e-015 0.0190017 -0.00118779 -5.73211e-005 -2.7944e-007 -3.94421e-007 1.08397e-006 -1.98626e-031 -4.77083e-015 -2.38542e-015 0.0122607 -0.00324899 -0.000677258 -6.36111e-015 -1.59028e-015 1.03368e-014 -1.98626e-031 -4.77083e-015 -2.38542e-015 -0 0 2.38542e-015 -4.41391e-032 -3.18055e-015 -7.95139e-016 -58.0578 -33.3415 -25.1564 179.969 46.2993 174.354 -2.39863 15.7385 -3.44748 -5.15364e-007 3.46225e-007 4.97807e-006 46.904 -33.3929 14.5214 -179.98 42.3 -173.817 2.55751 -1.56847 4.18877 1.51727e-006 1.58352e-007 1.18963e-006 
15.9458 -1.07446 18.966 -180 -64.9956 -180 0 20.7994 -0 0 41.5988 -0 0 41.5988 -0 0 30.9996 -0 -0 -63.8687 -0 0 3.39935e-006 -0 -75.9999 1.29437e-006 4.99678 -1.18324e-005 -2.90794e-006 -81.0033 24.9975 3.22971e-006 -6.53891e-006 3.18055e-015 1.55052e-014 3.97569e-016 9.54166e-015 1.05356e-014 1.98785e-015 -3.18055e-015 1.45113e-014 7.95139e-016 3.18055e-015 1.55052e-014 3.97569e-016 -0.0145455 -8.73494e-005 2.08384e-007 -3.18055e-015 -3.77691e-015 7.95139e-016 3.18055e-015 1.55052e-014 3.97569e-016 -0.0188198 -0.00117986 5.6916e-005 3.03456e-032 4.37326e-015 -3.97569e-016 3.18055e-015 1.55052e-014 3.97569e-016 -0.0123169 -0.00326452 0.000677862 4.68978e-032 -3.37934e-015 7.95139e-016 3.18055e-015 1.55052e-014 3.97569e-016 9.54166e-015 1.05356e-014 1.98785e-015 -3.18055e-015 1.45113e-014 7.95139e-016 7.48406 3.36287 17.7511 47.7046 16.6878 58.7136 4.86578 1.51431 5.97868 36.9134 -1.49697 -17.7437 -1.76556e-031 -3.18055e-015 -3.18055e-015 1.00429e-006 8.81315e-007 -9.93579e-007 1.00429e-006 8.81316e-007 -9.93579e-007 -1.76556e-031 -3.18055e-015 -3.18055e-015 0.0150265 -9.20233e-005 -4.40982e-006 1.00424e-006 8.81186e-007 -9.93696e-007 -1.76556e-031 -3.18055e-015 -3.18055e-015 0.0190314 -0.00119451 -6.35682e-005 1.00422e-006 8.81155e-007 -9.93736e-007 -1.76556e-031 -3.18055e-015 -3.18055e-015 0.0123112 -0.00326164 -0.000684239 1.00422e-006 8.81226e-007 -9.937e-007 -1.76556e-031 -3.18055e-015 -3.18055e-015 1.00429e-006 8.81315e-007 -9.93579e-007 1.00429e-006 8.81316e-007 -9.93579e-007 -59.5281 -33.4394 -27.1419 179.968 45.2162 174.251 -2.34072 15.7042 -3.52479 -1.04003e-005 -1.47768e-006 -3.57577e-006 47.8127 -33.4253 15.8277 -179.979 40.8696 -173.588 2.52857 -1.61494 4.34204 -1.28589e-006 2.84899e-006 -2.55513e-006 
